# xmcd
#
# Track frame offsets:
#	150
#	12865
#	37478
#
# Disc length: 1200 seconds
#
# Revision: 1
# Processed by: cddbd v1.5.2PL0 Copyright (c) Steve Scherf et al.
# Submitted via: EasyCDDAExtractor 10.0.3.1
#
DISCID=2104ae03
DTITLE=VANILLA NINJA - SINGLE
DYEAR=2006
DGENRE=
TTITLE0=Dangerzone - RADIO VERSION
TTITLE1=Dangerzone - UNPLUGGED
TTITLE2=DATA
EXTD=
EXTT0=
EXTT1=
EXTT2=
PLAYORDER=
